<svg xmlns="http://www.w3.org/2000/svg" height="800" width="1200" viewBox="-75 -125.00075 650 750.0045"><path fill="#FFE850" d="M0 0h500v500.003H0z"/><path d="M72.884 468.165c-25.574 0-42.914-13.098-42.914-37.422v-.936h14.038v.621c0 15.904 11.536 25.268 28.998 25.268 9.356 0 27.132-4.057 27.132-19.031 0-28.997-66.737-8.416-66.737-49.893 0-20.896 19.463-30.252 38.797-30.252 22.765 0 38.232 13.094 38.232 34.305v.936H96.399v-.936c0-13.723-9.67-21.833-25.267-21.833-10.915 0-23.701 4.678-23.701 17.158 0 27.132 66.737 8.102 66.737 49.894 0 22.139-20.707 32.121-41.284 32.121m137.54-3.117c-1.244-3.119-2.13-13.723-2.13-18.708v-57.388c0-22.765-13.974-32.432-38.304-32.432-22.45 0-42.099 9.981-42.099 34.619v.936h14.038v-.936c0-15.911 11.851-22.14 26.511-22.14 17.461 0 25.566 6.229 25.566 20.267 0 10.91-5.296 12.161-15.281 13.408l-5.296.629c-24.638 2.803-49.904 5.611-49.904 33.673 0 19.337 13.102 31.188 34.937 31.188 19.02 0 31.178-8.416 36.481-19.96 0 0 0 11.229 1.558 16.843h13.923zm-16.418-40.855c0 8.108-2.802 15.596-8.105 21.21-6.547 6.544-15.91 10.289-26.51 10.289-10.286 0-21.829-5.614-21.829-19.023 0-16.218 17.462-19.956 36.174-22.146l9.979-1.244c2.815-.307 8.112-1.25 10.292-3.116v14.03zm106.964-64.557h-15.011l-28.647 89.323-28.954-89.323h-16.261l37.424 105.409h15.282zm23.865-27.743c0-5.572-4.582-9.828-9.82-9.828-5.24 0-9.821 4.256-9.821 9.5 0 5.568 4.581 9.82 9.821 9.82 5.238 0 9.82-4.252 9.82-9.82zm-2.338 133.152V359.636h-14.66v105.409zm28.998 0V319.717h-14.653v145.328zm28.705 0V319.717h-14.66v145.328zm51.32 3.12c20.592 0 41.291-9.982 41.291-32.121 0-41.792-67.044-22.762-67.044-49.894 0-12.48 12.779-17.158 24.002-17.158 15.596 0 25.266 8.109 25.266 21.833v.936h14.031v-.936c0-21.21-15.468-34.305-38.54-34.305-19.341 0-38.797 9.356-38.797 30.252 0 41.477 67.044 20.896 67.044 49.893 0 14.975-18.083 19.031-27.432 19.031-17.162 0-29.012-9.363-29.012-25.268v-.621h-14.038v.936c0 24.324 17.347 37.422 43.229 37.422" fill="#CE171E"/></svg>